<?xml version="1.0" encoding="UTF-8" standalone="no"?>
<!--
Created with Inkscape (http://www.inkscape.org/)
  © 2026 William C. Canin
  This artwork is protected by copyright.
  Unauthorized use, copying, or modification is prohibited.
-->

<svg
   width="270mm"
   height="270mm"
   viewBox="0 0 270 270"
   version="1.1"
   id="svg1"
   xml:space="preserve"
   inkscape:version="1.4.4 (dcaf3e7d9e, 2026-05-05)"
   sodipodi:docname="orbitbits.svg"
   inkscape:export-filename="orbitbits.png"
   inkscape:export-xdpi="96"
   inkscape:export-ydpi="96"
   xmlns:inkscape="http://www.inkscape.org/namespaces/inkscape"
   xmlns:sodipodi="http://sodipodi.sourceforge.net/DTD/sodipodi-0.dtd"
   xmlns="http://www.w3.org/2000/svg"
   xmlns:svg="http://www.w3.org/2000/svg"
   xmlns:rdf="http://www.w3.org/1999/02/22-rdf-syntax-ns#"
   xmlns:cc="http://creativecommons.org/ns#"
   xmlns:dc="http://purl.org/dc/elements/1.1/"><title
     id="title1">OrbitBits</title><sodipodi:namedview
     id="namedview1"
     pagecolor="#ffffff"
     bordercolor="#000000"
     borderopacity="0.25"
     inkscape:showpageshadow="2"
     inkscape:pageopacity="0.0"
     inkscape:pagecheckerboard="0"
     inkscape:deskcolor="#d1d1d1"
     inkscape:document-units="mm"
     showgrid="false"
     inkscape:zoom="0.25"
     inkscape:cx="516"
     inkscape:cy="284"
     inkscape:window-width="1481"
     inkscape:window-height="991"
     inkscape:window-x="26"
     inkscape:window-y="23"
     inkscape:window-maximized="0"
     inkscape:current-layer="svg1" /><defs
     id="defs1" /><g
     inkscape:groupmode="layer"
     id="g4"
     inkscape:label="orbitbits-svg"
     style="display:inline"><rect
       style="display:none;fill:#ffffff;fill-opacity:1;stroke:none;stroke-width:5.67497;stroke-linecap:round;paint-order:fill markers stroke"
       id="rect1"
       width="270"
       height="270"
       x="0"
       y="0"
       inkscape:label="ob-bg-light"
       ry="0" /><rect
       style="display:inline;fill:#0d1117;fill-opacity:1;stroke:none;stroke-width:5.67497;stroke-linecap:round;paint-order:fill markers stroke"
       id="rect1-36"
       width="270"
       height="270"
       x="0"
       y="0"
       inkscape:label="ob-bg-dark"
       ry="0" /><path
       d="m 134.99831,64.689887 a 77.035052,78.076073 0 0 0 -77.977897,76.872323 77.035052,78.076073 0 0 0 75.614417,79.2609 77.035052,78.076073 0 0 0 78.42932,-76.3999 l 0.0139,-0.93083 A 77.035052,78.076073 0 0 0 134.99823,64.689887 Z m -0.64085,31.962233 a 44.436807,45.037312 0 0 1 43.88561,45.45588 l -0.006,0.53737 A 44.436807,45.037312 0 0 1 132.99489,186.71549 44.436807,45.037312 0 0 1 89.377633,140.99478 44.436807,45.037312 0 0 1 134.35832,96.65212 Z"
       style="display:none;fill:#181818;fill-opacity:1;stroke:none;stroke-width:2.70464;stroke-linecap:round;stroke-linejoin:bevel;stroke-miterlimit:1;stroke-opacity:1"
       id="path1"
       inkscape:label="ob-O-dark" /><path
       d="m 134.99831,64.689887 a 77.035052,78.076073 0 0 0 -77.977897,76.872323 77.035052,78.076073 0 0 0 75.614417,79.2609 77.035052,78.076073 0 0 0 78.42932,-76.3999 l 0.0139,-0.93083 A 77.035052,78.076073 0 0 0 134.99823,64.689887 Z m -0.64085,31.962233 a 44.436807,45.037312 0 0 1 43.88561,45.45588 l -0.006,0.53737 A 44.436807,45.037312 0 0 1 132.99489,186.71549 44.436807,45.037312 0 0 1 89.377633,140.99478 44.436807,45.037312 0 0 1 134.35832,96.65212 Z"
       style="display:inline;fill:#ffffff;fill-opacity:1;stroke:none;stroke-width:2.70464;stroke-linecap:round;stroke-linejoin:bevel;stroke-miterlimit:1;stroke-opacity:1"
       id="path1-0"
       inkscape:label="ob-O-light" /><path
       d="m 245.55189,55.467247 c 1.08115,13.18413 -5.81141,20.288849 -22.57527,19.9903 -5.06167,14.374679 -31.28253,43.399743 -78.02353,63.637133 -43.35501,21.51805 -142.1064974,37.71055 -90.526377,-22.20907 0.0678,-0.0773 -49.0533104,35.33263 -43.31667,52.12285 7.12901,20.86548 66.97654,14.33262 133.817287,-14.60733 66.84118,-28.94012 115.47572,-69.376773 108.74497,-90.414853 l -0.15428,-0.4513 c -1.23525,-3.39575 -7.96613,-8.06773 -7.96613,-8.06773 z"
       style="display:inline;fill:#26c7d9;stroke:#26c7d9;stroke-width:1.79326;stroke-linecap:round;stroke-linejoin:round;stroke-miterlimit:1;stroke-opacity:1"
       id="path2-62"
       sodipodi:nodetypes="ccccssccc"
       inkscape:label="ob-ring" /><rect
       style="display:inline;fill:#26c7d9;fill-opacity:1;stroke:#26c7d9;stroke-width:2.12746;stroke-linecap:round;stroke-linejoin:bevel;stroke-miterlimit:1;stroke-dasharray:none;stroke-opacity:1"
       id="rect2-61"
       width="22.459249"
       height="23.418674"
       x="214.85452"
       y="42.564407"
       ry="5.2903628"
       inkscape:label="ob-bit-3" /><rect
       style="display:inline;fill:#26c7d9;fill-opacity:1;stroke:#26c7d9;stroke-width:1.62644;stroke-linecap:round;stroke-linejoin:bevel;stroke-miterlimit:1;stroke-dasharray:none;stroke-opacity:1"
       id="rect3-8"
       width="17.169971"
       height="17.903454"
       x="190.99176"
       y="46.874939"
       ry="4.0444536"
       inkscape:label="ob-bit-2" /><rect
       style="display:inline;fill:#26c7d9;fill-opacity:1;stroke:#26c7d9;stroke-width:1.25902;stroke-linecap:round;stroke-linejoin:bevel;stroke-miterlimit:1;stroke-dasharray:none;stroke-opacity:1"
       id="rect4-7"
       width="13.291174"
       height="13.858953"
       x="171.19821"
       y="58.282089"
       ry="3.1307869"
       inkscape:label="ob-bit-1" /></g><metadata
     id="metadata1"><rdf:RDF><cc:Work
         rdf:about=""><dc:creator><cc:Agent><dc:title>William C. Canin</dc:title></cc:Agent></dc:creator><dc:rights><cc:Agent><dc:title>© 2026 William C. Canin. Unauthorized use prohibited.</dc:title></cc:Agent></dc:rights><dc:publisher><cc:Agent><dc:title>William C. Canin</dc:title></cc:Agent></dc:publisher><dc:title>OrbitBits</dc:title></cc:Work></rdf:RDF></metadata></svg>
